<svg width="96" height="272" viewBox="0 0 96 272" fill="none" xmlns="http://www.w3.org/2000/svg">
<path d="M11.6456 151L13.7394 149.634L11.6456 151ZM19.4999 128L17.9382 126.048L19.4999 128ZM84.3789 263.84C85.6715 263.355 86.3258 261.914 85.8403 260.621L77.9297 239.558C77.4443 238.265 76.003 237.611 74.7104 238.096C73.4178 238.581 72.7635 240.023 73.249 241.315L80.2806 260.039L61.5574 267.07C60.2649 267.556 59.6106 268.997 60.096 270.29C60.5814 271.582 62.0228 272.236 63.3154 271.751L84.3789 263.84ZM93.9248 0.606075C67.4204 8.58313 38.3261 33.9633 19.8506 63.2925C1.43777 92.5223 -7.10481 126.838 9.55191 152.366L13.7394 149.634C-1.24946 126.662 5.95781 94.7277 24.0812 65.9575C42.142 37.2867 70.3703 12.9169 95.3658 5.39392L93.9248 0.606075ZM9.55191 152.366C16.5772 163.133 30.4801 167.578 42.5881 166.118C54.7735 164.649 66.1511 157.005 66.9956 142.647L62.0043 142.353C61.3488 153.495 52.6706 159.866 41.9895 161.154C31.231 162.451 19.4567 158.396 13.7394 149.634L9.55191 152.366ZM66.9956 142.647C67.3976 135.813 65.8667 130.177 62.8189 125.886C59.7718 121.595 55.3501 118.85 50.3328 117.552C40.3714 114.975 27.9534 118.036 17.9382 126.048L21.0617 129.952C30.0978 122.723 40.9299 120.284 49.0806 122.392C53.1194 123.437 56.4694 125.58 58.7424 128.781C61.0146 131.98 62.3523 136.437 62.0043 142.353L66.9956 142.647ZM17.9382 126.048C1.67775 139.056 -0.998703 165.227 9.42353 191.727C19.9258 218.431 43.9122 246.274 82.4665 263.776L84.5333 259.224C47.088 242.225 24.0744 215.318 14.0766 189.897C3.99874 164.273 7.3221 140.944 21.0617 129.952L17.9382 126.048Z" fill="#E31F26"/>
</svg>
