<svg width="12" height="12" viewBox="0 0 12 12" fill="none" xmlns="http://www.w3.org/2000/svg">
<path d="M11.7285 0H0.271493C0.121548 0 0 0.121575 0 0.271493V11.7285C0 11.8784 0.121548 12 0.271493 12H11.7285C11.8785 12 12 11.8784 12 11.7285V0.271493C12 0.121575 11.8785 0 11.7285 0ZM11.457 11.457H0.542986V0.542986H11.457V11.457Z" fill="#E31F26"/>
<path d="M4.79687 5.73677L5.57297 4.23835L5.57297 9.53217C5.57297 9.79055 5.76396 10 5.99947 10C6.23499 10 6.42598 9.79055 6.42598 9.53217L6.42598 4.23835L7.20208 5.73677C7.31843 5.96143 7.57877 6.04007 7.78357 5.91244C7.92189 5.82627 7.99951 5.66805 7.99951 5.50524C7.99951 5.42693 7.98156 5.34754 7.94372 5.27456L6.37454 2.24496C6.3745 2.24486 6.37445 2.24472 6.37437 2.24463L6.37027 2.23672C6.36921 2.23462 6.3678 2.23284 6.36669 2.23078C6.35944 2.21731 6.35159 2.2043 6.34319 2.19172C6.34046 2.18755 6.33769 2.18344 6.33483 2.17942C6.32524 2.16604 6.31513 2.15308 6.30429 2.14091C6.30331 2.13984 6.30246 2.13857 6.30148 2.1375C6.28975 2.12458 6.27717 2.1127 6.26416 2.10138C6.26054 2.0982 6.25678 2.0953 6.25307 2.09226C6.24262 2.08374 6.23183 2.07579 6.22066 2.06835C6.21716 2.06601 6.21371 2.06358 6.21017 2.06133C6.18082 2.04299 6.14939 2.02849 6.11625 2.01815C6.1122 2.01689 6.10815 2.01586 6.10409 2.01474C6.0913 2.01118 6.07825 2.00828 6.06498 2.00608C6.06046 2.00533 6.05599 2.00444 6.05142 2.00379C6.0344 2.0015 6.01713 2 5.99952 2C5.9819 2 5.96467 2.00154 5.94761 2.00379C5.94305 2.0044 5.93857 2.00529 5.93405 2.00608C5.92078 2.00833 5.90778 2.01123 5.89494 2.01474C5.89089 2.01586 5.88684 2.01689 5.88278 2.01815C5.84964 2.02849 5.81821 2.04299 5.78887 2.06133C5.78533 2.06358 5.78187 2.06601 5.77838 2.06835C5.7672 2.07579 5.75641 2.08374 5.74596 2.09226C5.74225 2.0953 5.7385 2.0982 5.73487 2.10138C5.72182 2.1127 5.70924 2.12463 5.69755 2.1375C5.69657 2.13857 5.69572 2.13984 5.69474 2.14091C5.68391 2.15308 5.6738 2.16599 5.6642 2.17942C5.66134 2.18344 5.65857 2.18755 5.65584 2.19172C5.64744 2.2043 5.63959 2.21731 5.63234 2.23078C5.63123 2.23284 5.62982 2.23467 5.62876 2.23672L5.62466 2.24463C5.62462 2.24472 5.62454 2.24486 5.62449 2.24496L4.05531 5.27456C3.93883 5.4993 4.01065 5.78482 4.21546 5.91245C4.42027 6.04007 4.68052 5.96143 4.79687 5.73677Z" fill="#E31F26"/>
</svg>
