<svg width="10" height="13" viewBox="0 0 10 13" fill="none" xmlns="http://www.w3.org/2000/svg">
<path d="M4.99995 0C2.24294 0 0 2.13728 0 4.76441C0 5.97126 0.798022 7.6764 2.372 9.83252C3.52246 11.4086 4.65397 12.6283 4.70164 12.6794L4.99995 13L5.29836 12.6794C5.34593 12.6283 6.47744 11.4086 7.628 9.83252C9.20187 7.6764 10 5.97126 10 4.76441C10 2.13728 7.75696 0 4.99995 0ZM6.97757 9.39235C6.19995 10.4584 5.414 11.3758 4.99995 11.8438C4.58694 11.3771 3.8039 10.4631 3.0268 9.3985C1.56846 7.40077 0.797606 5.79829 0.797606 4.76441C0.797606 2.55642 2.6828 0.760033 4.99995 0.760033C7.3172 0.760033 9.20229 2.55642 9.20229 4.76441C9.20229 5.7972 8.43299 7.3975 6.97757 9.39235Z" fill="#E31F26"/>
<path d="M5.00219 1.76172C3.37503 1.76172 2.05127 3.02312 2.05127 4.57363C2.05127 6.12415 3.37503 7.38564 5.00219 7.38564C6.62946 7.38564 7.95322 6.12415 7.95322 4.57363C7.95322 3.02312 6.62946 1.76172 5.00219 1.76172ZM5.00219 6.62561C3.81489 6.62561 2.84888 5.7051 2.84888 4.57363C2.84888 3.44226 3.81489 2.52175 5.00219 2.52175C6.1896 2.52175 7.15561 3.44226 7.15561 4.57363C7.15561 5.7051 6.1896 6.62561 5.00219 6.62561Z" fill="#E31F26"/>
</svg>
