<svg width="16" height="12" viewBox="0 0 16 12" fill="none" xmlns="http://www.w3.org/2000/svg">
<path d="M14.5938 0H1.40625C0.629281 0 0 0.6754 0 1.5V10.5C0 11.3295 0.633906 12 1.40625 12H14.5938C15.3642 12 16 11.3323 16 10.5V1.5C16 0.676867 15.3732 0 14.5938 0ZM14.3968 1C14.1095 1.30483 9.16509 6.5511 8.99438 6.73223C8.72875 7.01557 8.37562 7.17157 8 7.17157C7.62437 7.17157 7.27125 7.01553 7.00475 6.7313C6.88994 6.60947 2.00009 1.42113 1.60319 1H14.3968ZM0.9375 10.2965V1.70417L4.98869 6.00267L0.9375 10.2965ZM1.60378 11L5.65338 6.7079L6.34272 7.43933C6.78541 7.91153 7.37397 8.17157 8 8.17157C8.62603 8.17157 9.21459 7.91153 9.65641 7.44027L10.3466 6.7079L14.3962 11H1.60378ZM15.0625 10.2965L11.0113 6.00267L15.0625 1.70417V10.2965Z" fill="white"/>
</svg>
